<?xml version="1.0" encoding="UTF-8"?>
<svg width="512" height="512" viewBox="0 0 512 512" fill="none" xmlns="http://www.w3.org/2000/svg">
  <circle cx="256" cy="256" r="256" fill="#1E3A8A"/>
  <circle cx="256" cy="256" r="240" stroke="white" stroke-width="2"/>
  <text x="256" y="200" text-anchor="middle" fill="white" font-family="Arial" font-size="28" font-weight="bold">GURU NANAK COLLEGE</text>
  <text x="256" y="340" text-anchor="middle" fill="white" font-family="Arial" font-size="24">(AUTONOMOUS)</text>
  <text x="256" y="380" text-anchor="middle" fill="white" font-family="Arial" font-size="20">CHENNAI - 600 042</text>
  <path d="M256 140 C220 140 190 170 190 206 C190 242 220 272 256 272 C292 272 322 242 322 206 C322 170 292 140 256 140 Z M256 180 C270 180 282 192 282 206 C282 220 270 232 256 232 C242 232 230 220 230 206 C230 192 242 180 256 180 Z" fill="white"/>
</svg>